<svg width="50" height="50" viewBox="0 0 51 51" fill="none" xmlns="http://www.w3.org/2000/svg">
<path fill-rule="evenodd" clip-rule="evenodd" d="M25.015 0C11.2567 0 0 11.2567 0 25.015C0 38.7733 11.2567 50.03 25.015 50.03C38.7733 50.03 50.03 38.7733 50.03 25.015C50.03 11.2567 38.8983 0 25.015 0ZM36.5219 36.1467C36.0216 36.8971 35.1461 37.1473 34.3956 36.647C28.5171 33.0198 21.1377 32.2693 12.3824 34.2705C11.5069 34.5207 10.7564 33.8953 10.5063 33.1449C10.2561 32.2693 10.8815 31.5189 11.632 31.2687C21.1377 29.1425 29.3926 30.018 35.8965 34.0204C36.772 34.3956 36.8971 35.3962 36.5219 36.1467ZM39.5237 29.2675C38.8983 30.1431 37.7727 30.5183 36.8971 29.8929C30.1431 25.7654 19.8869 24.5147 12.0072 27.0162C11.0066 27.2664 9.88092 26.7661 9.63077 25.7654C9.38062 24.7648 9.88093 23.6392 10.8815 23.389C20.012 20.6374 31.2687 22.0132 39.0234 26.7661C39.7738 27.1413 40.1491 28.392 39.5237 29.2675ZM39.7738 22.2633C31.7691 17.5105 18.386 17.0102 10.7564 19.3866C9.5057 19.7618 8.25495 19.0114 7.87972 17.8857C7.5045 16.635 8.25495 15.3842 9.38062 15.009C18.2609 12.3824 32.8947 12.8827 42.1503 18.386C43.2759 19.0114 43.6512 20.5123 43.0258 21.638C42.4004 22.5135 40.8995 22.8887 39.7738 22.2633Z" fill="white"/>
</svg>
