<svg width="36" height="36" viewBox="0 0 36 36" fill="none" xmlns="http://www.w3.org/2000/svg">
<path fill="white" d="M24.75 12H3.75C2.85 12 2.25 11.4 2.25 10.5C2.25 9.6 2.85 9 3.75 9H24.75C25.65 9 26.25 9.6 26.25 10.5C26.25 11.4 25.65 12 24.75 12ZM3.75 16.5H18.75C19.65 16.5 20.25 17.1 20.25 18C20.25 18.9 19.65 19.5 18.75 19.5H3.75C2.85 19.5 2.25 18.9 2.25 18C2.25 17.1 2.85 16.5 3.75 16.5ZM3.75 24H12.75C13.65 24 14.25 24.6 14.25 25.5C14.25 26.4 13.65 27 12.75 27H3.75C2.85 27 2.25 26.4 2.25 25.5C2.25 24.6 2.85 24 3.75 24ZM30.75 9C31.65 9 32.25 9.6 32.25 10.5C32.25 11.4 31.65 12 30.75 12C29.85 12 29.25 11.4 29.25 10.5C29.25 9.6 29.85 9 30.75 9ZM24.75 16.5C25.65 16.5 26.25 17.1 26.25 18C26.25 18.9 25.65 19.5 24.75 19.5C23.85 19.5 23.25 18.9 23.25 18C23.25 17.1 23.85 16.5 24.75 16.5ZM18.75 24C19.65 24 20.25 24.6 20.25 25.5C20.25 26.4 19.65 27 18.75 27C17.85 27 17.25 26.4 17.25 25.5C17.25 24.6 17.85 24 18.75 24Z"/>
</svg>
